<svg xmlns="http://www.w3.org/2000/svg" xmlns:xlink="http://www.w3.org/1999/xlink" width="3350" zoomAndPan="magnify" viewBox="0 0 2512.5 1012.49997" height="1350" preserveAspectRatio="xMidYMid meet" version="1.0"><defs><g/><clipPath id="8e74b6fa46"><path d="M 497 240 L 806.972656 240 L 806.972656 872 L 497 872 Z M 497 240 " clip-rule="nonzero"/></clipPath><clipPath id="c621bf9701"><path d="M 77 137.515625 L 656 137.515625 L 656 469 L 77 469 Z M 77 137.515625 " clip-rule="nonzero"/></clipPath></defs><g clip-path="url(#8e74b6fa46)"><path fill="#1743c0" d="M 776.472656 558.421875 L 807.800781 504.332031 L 654.859375 240.042969 L 557.109375 409.882812 C 554.109375 409.3125 551.042969 408.949219 547.910156 408.949219 C 520.351562 408.949219 497.921875 431.378906 497.921875 458.9375 C 497.921875 486.5 520.351562 508.929688 547.910156 508.929688 C 551.042969 508.929688 554.109375 508.5625 557.109375 507.996094 L 662.292969 689.632812 L 614.601562 772.1875 C 594.402344 768.488281 573.175781 777.453125 562.308594 796.25 C 548.578125 820.113281 556.777344 850.742188 580.640625 864.503906 C 588.472656 869.070312 597.070312 871.203125 605.535156 871.203125 C 622.867188 871.203125 639.664062 862.203125 648.929688 846.207031 C 659.792969 827.410156 656.859375 804.515625 643.496094 788.851562 L 700.851562 689.667969 L 585.871094 491.167969 C 593.269531 482.433594 597.9375 471.304688 597.9375 458.972656 C 597.9375 446.640625 593.304688 435.511719 585.871094 426.8125 L 654.960938 306.730469 L 769.308594 504.363281 L 747.578125 541.859375 C 736.246094 539.757812 724.214844 541.292969 713.515625 547.523438 C 689.621094 561.320312 681.457031 591.984375 695.253906 615.847656 C 704.519531 631.808594 721.347656 640.777344 738.644531 640.777344 C 747.144531 640.777344 755.742188 638.640625 763.574219 634.078125 C 787.4375 620.277344 795.601562 589.652344 781.804688 565.789062 C 780.273438 563.121094 778.441406 560.722656 776.507812 558.457031 Z M 620.066406 829.542969 C 615.433594 837.476562 605.167969 840.140625 597.269531 835.675781 C 589.339844 831.078125 586.605469 820.84375 591.136719 812.878906 C 594.238281 807.546875 599.871094 804.546875 605.636719 804.546875 C 608.46875 804.546875 611.335938 805.246094 613.933594 806.746094 C 621.898438 811.378906 624.632812 821.546875 620.066406 829.542969 Z M 531.246094 458.972656 C 531.246094 449.808594 538.746094 442.308594 547.910156 442.308594 C 557.078125 442.308594 564.574219 449.808594 564.574219 458.972656 C 564.574219 468.136719 557.078125 475.636719 547.910156 475.636719 C 538.746094 475.636719 531.246094 468.136719 531.246094 458.972656 Z M 754.578125 595.082031 C 753.445312 599.382812 750.710938 602.949219 746.878906 605.214844 C 738.847656 609.714844 728.648438 607.046875 724.046875 599.117188 C 719.449219 591.152344 722.183594 580.953125 730.148438 576.320312 C 732.78125 574.820312 735.648438 574.121094 738.480469 574.121094 C 744.246094 574.121094 749.84375 577.085938 752.945312 582.417969 C 755.144531 586.285156 755.777344 590.785156 754.609375 595.082031 Z M 754.578125 595.082031 " fill-opacity="1" fill-rule="nonzero"/></g><g clip-path="url(#c621bf9701)"><path fill="#277df1" d="M 320.648438 468.804688 C 348.210938 468.804688 370.640625 446.375 370.640625 418.8125 C 370.640625 406.449219 365.941406 395.25 358.476562 386.519531 L 463.191406 204.382812 L 558.675781 204.382812 C 565.574219 223.746094 583.90625 237.710938 605.601562 237.710938 C 633.164062 237.710938 655.59375 215.28125 655.59375 187.71875 C 655.59375 160.15625 633.164062 137.726562 605.601562 137.726562 C 583.90625 137.726562 565.574219 151.691406 558.675781 171.054688 L 443.929688 171.054688 L 329.679688 369.722656 C 326.75 369.1875 323.714844 368.820312 320.617188 368.820312 C 298.953125 368.820312 280.65625 382.753906 273.722656 402.050781 L 135.515625 402.050781 L 249.59375 204.382812 L 293.054688 204.382812 C 297.054688 215.582031 304.253906 225.210938 314.652344 231.175781 C 322.316406 235.644531 330.882812 237.910156 339.546875 237.910156 C 343.878906 237.910156 348.277344 237.308594 352.578125 236.175781 C 365.507812 232.710938 376.273438 224.378906 382.9375 212.8125 C 396.671875 188.917969 388.4375 158.324219 364.574219 144.59375 C 353.011719 137.894531 339.511719 136.125 326.648438 139.59375 C 313.71875 143.058594 302.953125 151.390625 296.320312 162.921875 C 294.789062 165.523438 293.621094 168.289062 292.621094 171.054688 L 230.332031 171.054688 L 77.789062 435.375 L 273.722656 435.375 C 280.589844 454.773438 298.953125 468.804688 320.683594 468.804688 Z M 605.601562 171.054688 C 614.765625 171.054688 622.265625 178.554688 622.265625 187.71875 C 622.265625 196.882812 614.765625 204.382812 605.601562 204.382812 C 596.4375 204.382812 588.9375 196.882812 588.9375 187.71875 C 588.9375 178.554688 596.4375 171.054688 605.601562 171.054688 Z M 325.183594 179.554688 C 327.382812 175.71875 330.980469 172.953125 335.28125 171.789062 C 336.714844 171.421875 338.179688 171.222656 339.648438 171.222656 C 342.511719 171.222656 345.34375 171.953125 347.910156 173.421875 C 351.746094 175.652344 354.511719 179.253906 355.644531 183.550781 C 356.808594 187.851562 356.210938 192.351562 353.976562 196.214844 C 351.777344 200.050781 348.179688 202.816406 343.878906 203.980469 C 339.546875 205.082031 335.082031 204.546875 331.214844 202.28125 C 327.382812 200.082031 324.617188 196.484375 323.449219 192.183594 C 322.316406 187.886719 322.882812 183.386719 325.148438 179.519531 Z M 320.648438 402.148438 C 329.816406 402.148438 337.3125 409.648438 337.3125 418.8125 C 337.3125 427.976562 329.816406 435.476562 320.648438 435.476562 C 311.484375 435.476562 303.984375 427.976562 303.984375 418.8125 C 303.984375 409.648438 311.484375 402.148438 320.648438 402.148438 Z M 320.648438 402.148438 " fill-opacity="1" fill-rule="nonzero"/></g><path fill="#5ce1e6" d="M 449.628906 635.675781 C 449.628906 608.113281 427.199219 585.683594 399.636719 585.683594 C 377.941406 585.683594 359.609375 599.648438 352.710938 619.011719 L 142.578125 619.3125 L 94.886719 536.792969 C 108.21875 521.128906 111.183594 498.265625 100.320312 479.46875 C 86.589844 455.640625 55.960938 447.472656 32.066406 461.140625 C 8.203125 474.9375 0.00390625 505.566406 13.769531 529.460938 C 23 545.457031 39.832031 554.457031 57.160156 554.457031 C 60.125 554.457031 63.058594 553.855469 65.992188 553.324219 L 123.417969 652.671875 L 352.746094 652.375 C 359.644531 671.738281 377.972656 685.703125 399.667969 685.703125 C 402.800781 685.703125 405.835938 685.335938 408.835938 684.769531 L 477.824219 804.648438 L 249.59375 804.648438 L 227.933594 767.222656 C 235.464844 758.457031 240.195312 747.191406 240.195312 734.726562 C 240.195312 707.199219 217.699219 684.800781 190.136719 684.800781 C 162.578125 684.867188 140.179688 707.296875 140.214844 734.859375 C 140.214844 748.191406 145.414062 760.753906 154.84375 770.1875 C 164.277344 779.617188 176.808594 784.785156 190.136719 784.785156 L 190.238281 784.785156 C 193.269531 784.785156 196.171875 784.417969 199.070312 783.886719 L 230.398438 837.976562 L 535.414062 837.976562 L 437.5625 667.902344 C 444.996094 659.171875 449.628906 648.007812 449.628906 635.710938 Z M 42.597656 512.832031 C 37.996094 504.863281 40.730469 494.632812 48.695312 490.035156 C 56.527344 485.335938 66.859375 488.132812 71.492188 496.132812 C 76.089844 504.066406 73.359375 514.296875 65.359375 518.929688 C 57.460938 523.460938 47.164062 520.761719 42.597656 512.832031 Z M 190.171875 751.421875 C 185.738281 751.421875 181.539062 749.691406 178.40625 746.558594 C 175.242188 743.390625 173.542969 739.226562 173.542969 734.757812 C 173.542969 725.5625 181.007812 718.0625 190.171875 718.0625 C 199.335938 718.0625 206.835938 725.5625 206.867188 734.691406 C 206.867188 743.890625 199.402344 751.390625 190.203125 751.390625 Z M 382.972656 635.675781 C 382.972656 626.511719 390.472656 619.011719 399.636719 619.011719 C 408.800781 619.011719 416.300781 626.511719 416.300781 635.675781 C 416.300781 644.839844 408.800781 652.339844 399.636719 652.339844 C 390.472656 652.339844 382.972656 644.839844 382.972656 635.675781 Z M 382.972656 635.675781 " fill-opacity="1" fill-rule="nonzero"/><g fill="#ffffff" fill-opacity="1"><g transform="translate(859.896771, 616.945292)"><g><path d="M 148.859375 -77.21875 L 148.859375 -193.640625 L 175.109375 -193.640625 L 175.109375 -77.21875 C 175.109375 -50.03125 168.773438 -29.953125 156.109375 -16.984375 C 143.453125 -4.015625 123.84375 2.46875 97.28125 2.46875 C 70.519531 2.46875 51.015625 -3.859375 38.765625 -16.515625 C 26.515625 -29.179688 20.390625 -49.414062 20.390625 -77.21875 L 20.390625 -193.640625 L 46.640625 -193.640625 L 46.640625 -77.21875 C 46.640625 -56.832031 50.394531 -42.570312 57.90625 -34.4375 C 65.425781 -26.300781 78.550781 -22.234375 97.28125 -22.234375 C 116.226562 -22.234375 129.5625 -26.300781 137.28125 -34.4375 C 145 -42.570312 148.859375 -56.832031 148.859375 -77.21875 Z M 148.859375 -77.21875 "/></g></g></g><g fill="#ffffff" fill-opacity="1"><g transform="translate(1062.495563, 616.945292)"><g><path d="M 180.671875 -193.640625 L 180.671875 0 L 154.109375 0 L 46.9375 -150.71875 L 46.9375 0 L 22.234375 0 L 22.234375 -193.640625 L 48.796875 -193.640625 L 155.96875 -40.765625 L 155.96875 -193.640625 Z M 180.671875 -193.640625 "/></g></g></g><g fill="#ffffff" fill-opacity="1"><g transform="translate(1272.506506, 616.945292)"><g><path d="M 48.484375 -193.640625 L 48.484375 0 L 22.234375 0 L 22.234375 -193.640625 Z M 48.484375 -193.640625 "/></g></g></g><g fill="#ffffff" fill-opacity="1"><g transform="translate(1350.334171, 616.945292)"><g><path d="M 75.046875 0 L 2.46875 -193.640625 L 31.5 -193.640625 L 75.96875 -71.03125 C 77.625 -65.882812 79.6875 -59.347656 82.15625 -51.421875 C 84.625 -43.492188 87.609375 -33.25 91.109375 -20.6875 C 93.785156 -30.570312 96.410156 -39.941406 98.984375 -48.796875 C 101.554688 -57.648438 103.875 -65.0625 105.9375 -71.03125 L 150.09375 -193.640625 L 178.515625 -193.640625 L 105.9375 0 Z M 75.046875 0 "/></g></g></g><g fill="#ffffff" fill-opacity="1"><g transform="translate(1538.41753, 616.945292)"><g><path d="M 150.71875 -24.703125 L 150.71875 0 L 22.234375 0 L 22.234375 -193.640625 L 147.9375 -193.640625 L 147.9375 -169.859375 L 48.484375 -169.859375 L 48.484375 -110.5625 L 136.515625 -110.5625 L 136.515625 -87.40625 L 48.484375 -87.40625 L 48.484375 -24.703125 Z M 150.71875 -24.703125 "/></g></g></g><g fill="#ffffff" fill-opacity="1"><g transform="translate(1707.044008, 616.945292)"><g><path d="M 48.484375 -69.484375 L 48.484375 0 L 22.234375 0 L 22.234375 -193.640625 L 88.015625 -193.640625 C 115.398438 -193.640625 135.007812 -188.957031 146.84375 -179.59375 C 158.6875 -170.226562 164.609375 -154.734375 164.609375 -133.109375 C 164.609375 -116.222656 160.847656 -102.785156 153.328125 -92.796875 C 145.816406 -82.816406 134.445312 -76.078125 119.21875 -72.578125 L 169.859375 0 L 138.359375 0 L 91.421875 -69.484375 Z M 138.046875 -133.109375 C 138.046875 -146.285156 134.238281 -155.703125 126.625 -161.359375 C 119.007812 -167.023438 106.140625 -169.859375 88.015625 -169.859375 L 48.484375 -169.859375 L 48.484375 -92.65625 L 88.015625 -92.65625 C 105.722656 -92.65625 118.488281 -95.84375 126.3125 -102.21875 C 134.132812 -108.601562 138.046875 -118.898438 138.046875 -133.109375 Z M 138.046875 -133.109375 "/></g></g></g><g fill="#ffffff" fill-opacity="1"><g transform="translate(1892.965456, 616.945292)"><g><path d="M 96.984375 -81.21875 L 50.03125 -92.34375 C 37.0625 -95.4375 27.691406 -100.738281 21.921875 -108.25 C 16.160156 -115.757812 13.28125 -126.207031 13.28125 -139.59375 C 13.28125 -159.15625 18.890625 -173.566406 30.109375 -182.828125 C 41.328125 -192.097656 58.78125 -196.734375 82.46875 -196.734375 C 92.34375 -196.734375 101.242188 -196.269531 109.171875 -195.34375 C 117.097656 -194.414062 124.460938 -193.023438 131.265625 -191.171875 L 131.265625 -167.390625 C 122.609375 -169.453125 114.367188 -170.894531 106.546875 -171.71875 C 98.722656 -172.539062 90.59375 -172.953125 82.15625 -172.953125 C 66.300781 -172.953125 55.179688 -170.632812 48.796875 -166 C 42.410156 -161.363281 39.21875 -153.179688 39.21875 -141.453125 C 39.21875 -134.035156 40.707031 -128.421875 43.6875 -124.609375 C 46.675781 -120.804688 51.570312 -118.082031 58.375 -116.4375 L 105 -105.3125 C 121.476562 -101.40625 132.441406 -95.898438 137.890625 -88.796875 C 143.347656 -81.691406 146.078125 -70.726562 146.078125 -55.90625 C 146.078125 -34.695312 140.566406 -19.664062 129.546875 -10.8125 C 118.535156 -1.957031 101.09375 2.46875 77.21875 2.46875 C 64.65625 2.46875 52.554688 1.644531 40.921875 0 C 29.285156 -1.644531 20.070312 -3.804688 13.28125 -6.484375 L 13.28125 -31.1875 C 22.957031 -28.3125 33.25 -26.097656 44.15625 -24.546875 C 55.070312 -23.003906 66.09375 -22.234375 77.21875 -22.234375 C 92.65625 -22.234375 103.460938 -24.5 109.640625 -29.03125 C 115.816406 -33.5625 118.90625 -42.3125 118.90625 -55.28125 C 118.90625 -63.3125 117.410156 -69.128906 114.421875 -72.734375 C 111.441406 -76.335938 105.628906 -79.164062 96.984375 -81.21875 Z M 96.984375 -81.21875 "/></g></g></g><g fill="#ffffff" fill-opacity="1"><g transform="translate(2055.723968, 616.945292)"><g><path d="M 48.484375 -193.640625 L 48.484375 0 L 22.234375 0 L 22.234375 -193.640625 Z M 48.484375 -193.640625 "/></g></g></g><g fill="#ffffff" fill-opacity="1"><g transform="translate(2133.551678, 616.945292)"><g><path d="M 148.859375 -77.21875 L 148.859375 -193.640625 L 175.109375 -193.640625 L 175.109375 -77.21875 C 175.109375 -50.03125 168.773438 -29.953125 156.109375 -16.984375 C 143.453125 -4.015625 123.84375 2.46875 97.28125 2.46875 C 70.519531 2.46875 51.015625 -3.859375 38.765625 -16.515625 C 26.515625 -29.179688 20.390625 -49.414062 20.390625 -77.21875 L 20.390625 -193.640625 L 46.640625 -193.640625 L 46.640625 -77.21875 C 46.640625 -56.832031 50.394531 -42.570312 57.90625 -34.4375 C 65.425781 -26.300781 78.550781 -22.234375 97.28125 -22.234375 C 116.226562 -22.234375 129.5625 -26.300781 137.28125 -34.4375 C 145 -42.570312 148.859375 -56.832031 148.859375 -77.21875 Z M 148.859375 -77.21875 "/></g></g></g><g fill="#ffffff" fill-opacity="1"><g transform="translate(2336.15047, 616.945292)"><g><path d="M 96.984375 -81.21875 L 50.03125 -92.34375 C 37.0625 -95.4375 27.691406 -100.738281 21.921875 -108.25 C 16.160156 -115.757812 13.28125 -126.207031 13.28125 -139.59375 C 13.28125 -159.15625 18.890625 -173.566406 30.109375 -182.828125 C 41.328125 -192.097656 58.78125 -196.734375 82.46875 -196.734375 C 92.34375 -196.734375 101.242188 -196.269531 109.171875 -195.34375 C 117.097656 -194.414062 124.460938 -193.023438 131.265625 -191.171875 L 131.265625 -167.390625 C 122.609375 -169.453125 114.367188 -170.894531 106.546875 -171.71875 C 98.722656 -172.539062 90.59375 -172.953125 82.15625 -172.953125 C 66.300781 -172.953125 55.179688 -170.632812 48.796875 -166 C 42.410156 -161.363281 39.21875 -153.179688 39.21875 -141.453125 C 39.21875 -134.035156 40.707031 -128.421875 43.6875 -124.609375 C 46.675781 -120.804688 51.570312 -118.082031 58.375 -116.4375 L 105 -105.3125 C 121.476562 -101.40625 132.441406 -95.898438 137.890625 -88.796875 C 143.347656 -81.691406 146.078125 -70.726562 146.078125 -55.90625 C 146.078125 -34.695312 140.566406 -19.664062 129.546875 -10.8125 C 118.535156 -1.957031 101.09375 2.46875 77.21875 2.46875 C 64.65625 2.46875 52.554688 1.644531 40.921875 0 C 29.285156 -1.644531 20.070312 -3.804688 13.28125 -6.484375 L 13.28125 -31.1875 C 22.957031 -28.3125 33.25 -26.097656 44.15625 -24.546875 C 55.070312 -23.003906 66.09375 -22.234375 77.21875 -22.234375 C 92.65625 -22.234375 103.460938 -24.5 109.640625 -29.03125 C 115.816406 -33.5625 118.90625 -42.3125 118.90625 -55.28125 C 118.90625 -63.3125 117.410156 -69.128906 114.421875 -72.734375 C 111.441406 -76.335938 105.628906 -79.164062 96.984375 -81.21875 Z M 96.984375 -81.21875 "/></g></g></g><g fill="#ffffff" fill-opacity="1"><g transform="translate(1209.94529, 733.945801)"><g><path d="M 61.203125 -75.390625 L 61.203125 -58.5625 L 40.640625 -58.5625 L 40.640625 0 L 22 0 L 22 -58.5625 L 1.4375 -58.5625 L 1.4375 -75.390625 Z M 61.203125 -75.390625 "/></g></g></g><g fill="#ffffff" fill-opacity="1"><g transform="translate(1304.461472, 733.945801)"><g><path d="M 57.71875 -17.4375 L 57.71875 0 L 5.765625 0 L 5.765625 -75.390625 L 56.640625 -75.390625 L 56.640625 -58.5625 L 24.40625 -58.5625 L 24.40625 -46.0625 L 52.1875 -46.0625 L 52.1875 -30.421875 L 24.40625 -30.421875 L 24.40625 -17.4375 Z M 57.71875 -17.4375 "/></g></g></g><g fill="#ffffff" fill-opacity="1"><g transform="translate(1397.053718, 733.945801)"><g><path d="M 38.484375 -16.234375 C 41.691406 -16.234375 45.175781 -16.570312 48.9375 -17.25 C 52.707031 -17.9375 56.078125 -18.84375 59.046875 -19.96875 L 59.046875 -3.484375 C 54.628906 -1.722656 50.65625 -0.503906 47.125 0.171875 C 43.601562 0.859375 39.921875 1.203125 36.078125 1.203125 C 29.097656 1.203125 23.523438 0.398438 19.359375 -1.203125 C 15.191406 -2.804688 11.863281 -5.375 9.375 -8.90625 C 7.289062 -11.945312 5.75 -15.832031 4.75 -20.5625 C 3.75 -25.289062 3.25 -31.023438 3.25 -37.765625 C 3.25 -51.222656 6.15625 -61.054688 11.96875 -67.265625 C 17.78125 -73.484375 27.019531 -76.59375 39.6875 -76.59375 C 43.375 -76.59375 46.660156 -76.515625 49.546875 -76.359375 C 52.429688 -76.203125 55.035156 -75.921875 57.359375 -75.515625 L 57.359375 -59.28125 C 54.710938 -59.445312 51.96875 -59.566406 49.125 -59.640625 C 46.28125 -59.722656 43.132812 -59.765625 39.6875 -59.765625 C 35.269531 -59.765625 32 -59.34375 29.875 -58.5 C 27.757812 -57.65625 26.175781 -56.191406 25.125 -54.109375 C 24.164062 -52.503906 23.484375 -50.378906 23.078125 -47.734375 C 22.679688 -45.085938 22.484375 -41.765625 22.484375 -37.765625 C 22.484375 -33.992188 22.660156 -30.84375 23.015625 -28.3125 C 23.378906 -25.789062 23.960938 -23.6875 24.765625 -22 C 25.804688 -19.914062 27.328125 -18.429688 29.328125 -17.546875 C 31.335938 -16.671875 34.390625 -16.234375 38.484375 -16.234375 Z M 38.484375 -16.234375 "/></g></g></g><g fill="#ffffff" fill-opacity="1"><g transform="translate(1490.006698, 733.945801)"><g><path d="M 70.828125 -75.390625 L 70.828125 0 L 53.03125 0 L 23.203125 -43.53125 L 23.203125 0 L 5.765625 0 L 5.765625 -75.390625 L 23.453125 -75.390625 L 53.390625 -30.1875 L 53.390625 -75.390625 Z M 70.828125 -75.390625 "/></g></g></g><g fill="#ffffff" fill-opacity="1"><g transform="translate(1598.471339, 733.945801)"><g><path d="M 74.1875 -37.765625 C 74.1875 -24.054688 71.398438 -14.132812 65.828125 -8 C 60.265625 -1.863281 51.226562 1.203125 38.71875 1.203125 C 25.65625 1.203125 16.476562 -1.679688 11.1875 -7.453125 C 5.894531 -13.222656 3.25 -23.328125 3.25 -37.765625 C 3.25 -51.472656 6.035156 -61.367188 11.609375 -67.453125 C 17.179688 -73.546875 26.21875 -76.59375 38.71875 -76.59375 C 51.789062 -76.59375 60.96875 -73.707031 66.25 -67.9375 C 71.539062 -62.164062 74.1875 -52.109375 74.1875 -37.765625 Z M 24.40625 -21.640625 C 25.445312 -19.640625 26.988281 -18.238281 29.03125 -17.4375 C 31.082031 -16.632812 34.3125 -16.234375 38.71875 -16.234375 C 43.125 -16.234375 46.347656 -16.632812 48.390625 -17.4375 C 50.441406 -18.238281 51.988281 -19.640625 53.03125 -21.640625 C 53.832031 -23.242188 54.410156 -25.328125 54.765625 -27.890625 C 55.128906 -30.460938 55.3125 -33.753906 55.3125 -37.765625 C 55.3125 -41.847656 55.128906 -45.191406 54.765625 -47.796875 C 54.410156 -50.398438 53.832031 -52.503906 53.03125 -54.109375 C 52.070312 -56.191406 50.566406 -57.65625 48.515625 -58.5 C 46.472656 -59.34375 43.207031 -59.765625 38.71875 -59.765625 C 34.226562 -59.765625 30.960938 -59.34375 28.921875 -58.5 C 26.878906 -57.65625 25.375 -56.191406 24.40625 -54.109375 C 23.601562 -52.503906 23.019531 -50.398438 22.65625 -47.796875 C 22.300781 -45.191406 22.125 -41.847656 22.125 -37.765625 C 22.125 -33.753906 22.300781 -30.460938 22.65625 -27.890625 C 23.019531 -25.328125 23.601562 -23.242188 24.40625 -21.640625 Z M 24.40625 -21.640625 "/></g></g></g><g fill="#ffffff" fill-opacity="1"><g transform="translate(1707.777689, 733.945801)"><g><path d="M 53.875 -17.4375 L 53.875 0 L 5.765625 0 L 5.765625 -75.390625 L 24.40625 -75.390625 L 24.40625 -17.4375 Z M 53.875 -17.4375 "/></g></g></g><g fill="#ffffff" fill-opacity="1"><g transform="translate(1795.07913, 733.945801)"><g><path d="M 74.1875 -37.765625 C 74.1875 -24.054688 71.398438 -14.132812 65.828125 -8 C 60.265625 -1.863281 51.226562 1.203125 38.71875 1.203125 C 25.65625 1.203125 16.476562 -1.679688 11.1875 -7.453125 C 5.894531 -13.222656 3.25 -23.328125 3.25 -37.765625 C 3.25 -51.472656 6.035156 -61.367188 11.609375 -67.453125 C 17.179688 -73.546875 26.21875 -76.59375 38.71875 -76.59375 C 51.789062 -76.59375 60.96875 -73.707031 66.25 -67.9375 C 71.539062 -62.164062 74.1875 -52.109375 74.1875 -37.765625 Z M 24.40625 -21.640625 C 25.445312 -19.640625 26.988281 -18.238281 29.03125 -17.4375 C 31.082031 -16.632812 34.3125 -16.234375 38.71875 -16.234375 C 43.125 -16.234375 46.347656 -16.632812 48.390625 -17.4375 C 50.441406 -18.238281 51.988281 -19.640625 53.03125 -21.640625 C 53.832031 -23.242188 54.410156 -25.328125 54.765625 -27.890625 C 55.128906 -30.460938 55.3125 -33.753906 55.3125 -37.765625 C 55.3125 -41.847656 55.128906 -45.191406 54.765625 -47.796875 C 54.410156 -50.398438 53.832031 -52.503906 53.03125 -54.109375 C 52.070312 -56.191406 50.566406 -57.65625 48.515625 -58.5 C 46.472656 -59.34375 43.207031 -59.765625 38.71875 -59.765625 C 34.226562 -59.765625 30.960938 -59.34375 28.921875 -58.5 C 26.878906 -57.65625 25.375 -56.191406 24.40625 -54.109375 C 23.601562 -52.503906 23.019531 -50.398438 22.65625 -47.796875 C 22.300781 -45.191406 22.125 -41.847656 22.125 -37.765625 C 22.125 -33.753906 22.300781 -30.460938 22.65625 -27.890625 C 23.019531 -25.328125 23.601562 -23.242188 24.40625 -21.640625 Z M 24.40625 -21.640625 "/></g></g></g><g fill="#ffffff" fill-opacity="1"><g transform="translate(1904.38548, 733.945801)"><g><path d="M 48.453125 -28.015625 L 35.46875 -28.015625 L 35.46875 -43.046875 L 65.890625 -43.046875 L 65.890625 -3.359375 C 63.648438 -2.316406 59.644531 -1.296875 53.875 -0.296875 C 48.101562 0.703125 42.851562 1.203125 38.125 1.203125 C 25.050781 1.203125 15.96875 -1.800781 10.875 -7.8125 C 5.789062 -13.820312 3.25 -23.804688 3.25 -37.765625 C 3.25 -51.222656 6.210938 -61.054688 12.140625 -67.265625 C 18.078125 -73.484375 27.539062 -76.59375 40.53125 -76.59375 C 45.257812 -76.59375 49.484375 -76.492188 53.203125 -76.296875 C 56.929688 -76.097656 59.800781 -75.796875 61.8125 -75.390625 L 61.8125 -59.046875 C 59.164062 -59.285156 56.015625 -59.460938 52.359375 -59.578125 C 48.710938 -59.703125 44.769531 -59.765625 40.53125 -59.765625 C 35.957031 -59.765625 32.566406 -59.363281 30.359375 -58.5625 C 28.160156 -57.757812 26.5 -56.359375 25.375 -54.359375 C 24.332031 -52.753906 23.585938 -50.609375 23.140625 -47.921875 C 22.703125 -45.234375 22.484375 -41.847656 22.484375 -37.765625 C 22.484375 -33.828125 22.679688 -30.535156 23.078125 -27.890625 C 23.484375 -25.253906 24.128906 -23.132812 25.015625 -21.53125 C 26.140625 -19.363281 27.722656 -17.835938 29.765625 -16.953125 C 31.804688 -16.066406 34.992188 -15.625 39.328125 -15.625 C 40.765625 -15.625 42.265625 -15.6875 43.828125 -15.8125 C 45.390625 -15.9375 46.929688 -16.117188 48.453125 -16.359375 Z M 48.453125 -28.015625 "/></g></g></g><g fill="#ffffff" fill-opacity="1"><g transform="translate(2005.75561, 733.945801)"><g><path d="M 24.40625 -75.390625 L 24.40625 0 L 5.765625 0 L 5.765625 -75.390625 Z M 24.40625 -75.390625 "/></g></g></g><g fill="#ffffff" fill-opacity="1"><g transform="translate(2067.8055, 733.945801)"><g><path d="M 19.234375 0 L -0.359375 0 L 27.53125 -75.390625 L 46.890625 -75.390625 L 74.078125 0 L 54.59375 0 L 50.625 -12.625 L 23.203125 -12.625 Z M 36.796875 -56.875 C 36.148438 -54.632812 35.445312 -52.25 34.6875 -49.71875 C 33.925781 -47.195312 32.664062 -43.085938 30.90625 -37.390625 L 27.78125 -27.421875 L 45.9375 -27.421875 L 42.8125 -37.390625 C 41.769531 -40.441406 40.726562 -43.671875 39.6875 -47.078125 C 38.644531 -50.484375 37.679688 -53.75 36.796875 -56.875 Z M 36.796875 -56.875 "/></g></g></g></svg>